<?xml version="1.0" encoding="UTF-8" standalone="no"?>
<!-- Created with Inkscape (http://www.inkscape.org/) -->
<svg xmlns:dc="http://purl.org/dc/elements/1.1/" xmlns:cc="http://creativecommons.org/ns#" xmlns:rdf="http://www.w3.org/1999/02/22-rdf-syntax-ns#" xmlns:svg="http://www.w3.org/2000/svg" xmlns="http://www.w3.org/2000/svg" xmlns:sodipodi="http://sodipodi.sourceforge.net/DTD/sodipodi-0.dtd" xmlns:inkscape="http://www.inkscape.org/namespaces/inkscape" width="1547.479" height="700.03412" id="svg3928" sodipodi:version="0.32" inkscape:version="0.46" sodipodi:docname="taitbrianangles.svg.svg" inkscape:output_extension="org.inkscape.output.svg.inkscape" version="1.0">
  <defs id="defs3930">
    <inkscape:perspective sodipodi:type="inkscape:persp3d" inkscape:vp_x="0 : 526.18109 : 1" inkscape:vp_y="0 : 1000 : 0" inkscape:vp_z="744.09448 : 526.18109 : 1" inkscape:persp3d-origin="372.04724 : 350.78739 : 1" id="perspective3936"/>
  </defs>
  <sodipodi:namedview id="base" pagecolor="#ffffff" bordercolor="#ffffff" borderopacity="0.0" inkscape:pageopacity="0.0" inkscape:pageshadow="0" inkscape:zoom="0.35" inkscape:cx="569.61754" inkscape:cy="226.08773" inkscape:document-units="px" inkscape:current-layer="layer1" showgrid="false" inkscape:window-width="847" inkscape:window-height="667" inkscape:window-x="110" inkscape:window-y="145"/>
  <metadata id="metadata3933">
    <rdf:RDF>
      <cc:Work rdf:about="">
        <dc:format>image/svg+xml</dc:format>
        <dc:type rdf:resource="http://purl.org/dc/dcmitype/StillImage"/>
      </cc:Work>
    </rdf:RDF>
  </metadata>
  <g inkscape:label="Layer 1" inkscape:groupmode="layer" id="layer1" transform="translate(1053.7395,328.07731)">
    <path d="M -154.2541,118.48464 C -154.2541,222.75336 -9.53158,307.27986 168.99271,307.27986 C 347.517,307.27986 492.23953,222.75336 492.23953,118.48464 C 492.23953,14.215916 347.517,-70.310584 168.99272,-70.310584 C -9.53158,-70.310584 -154.2541,14.215916 -154.2541,118.48464 L -154.2541,118.48464 z" style="fill:none;fill-opacity:1;stroke:#008dd1;stroke-width:3;stroke-miterlimit:4;stroke-dasharray:none;stroke-dashoffset:0;stroke-opacity:1" id="path2323"/>
    <g id="g3490" transform="matrix(-1,0,0,1,493.73952,-353.34208)">
      <path d="M 642.0625,465.25 C 642.0625,465.25 553.73976,466.65626 323.5,466.65625 L 323.5,469.65625 C 553.75217,469.65626 642.09375,468.25 642.09375,468.25 L 642.0625,465.25 z" style="fill:#008dd1;fill-opacity:1;fill-rule:evenodd;stroke:none;stroke-width:3;stroke-linecap:butt;stroke-linejoin:miter;stroke-miterlimit:4;stroke-dasharray:none;stroke-opacity:1" id="path14453"/>
      <path d="M 612.07665,467.22142 L 600.27228,479.41392 L 642.07273,466.73627 L 599.88416,455.41706 L 612.07665,467.22142 z" style="fill:#008dd1;fill-rule:evenodd;stroke:#008dd1;stroke-width:2.4pt;marker-start:none" id="path3496"/>
    </g>
    <path d="M 51.84975,293.71411 C 29.68671,264.65625 9.52798,231.37055 -7.4315,194.68295 C -41.83335,120.26285 -57.02398,44.799746 -54.244,-19.285754 C -54.33772,-19.234054 -54.43163,-19.181354 -54.52525,-19.129554 C -51.19765,-94.384754 -23.0306,-153.92885 28.03725,-177.53577 C 43.27988,-184.58193 59.60193,-187.99873 76.631,-188.09827 C 77.76627,-188.10491 78.92727,-188.08971 80.0685,-188.06702 C 144.58236,-186.78432 218.23336,-138.65749 277.38101,-60.192054 C 277.62049,-60.141654 277.86054,-60.086454 278.09976,-60.035754" style="fill:#ffffff;fill-opacity:1;stroke:#eb2d2e;stroke-width:3;stroke-miterlimit:4;stroke-dasharray:none;stroke-dashoffset:0;stroke-opacity:1" id="path11396"/>
    <g id="g3506" transform="matrix(-1,0,0,1,493.73952,-353.34208)">
      <path d="M 215.71875,292.90625 L 213.1875,294.53125 C 351.70402,509.56682 420.96462,617.08486 455.59375,670.84375 C 472.90832,697.7232 481.57761,711.18639 485.90625,717.90625 C 488.07057,721.26618 489.14642,722.94127 489.6875,723.78125 C 489.95804,724.20124 490.08861,724.395 490.15625,724.5 C 490.19007,724.5525 490.2103,724.58063 490.21875,724.59375 C 490.22298,724.60031 490.21769,724.62336 490.21875,724.625 L 492.75,723 C 492.75,723 492.7518,722.97739 215.71875,292.90625 z" style="fill:#00aa4f;fill-opacity:1;fill-rule:evenodd;stroke:none;stroke-width:3;stroke-linecap:butt;stroke-linejoin:miter;stroke-miterlimit:4;stroke-dasharray:none;stroke-opacity:1" id="path8199"/>
      <path d="M 475.24243,698.57848 L 458.6559,694.98867 L 491.48834,723.79892 L 478.83225,681.99194 L 475.24243,698.57848 z" style="fill:#00aa4f;fill-rule:evenodd;stroke:#00aa4f;stroke-width:2.4pt;marker-start:none" id="path3512"/>
    </g>
    <g id="g3474" transform="matrix(-1,0,0,1,493.73952,-353.34208)">
      <path d="M 324.59375,465.625 C 264.48967,553.50828 234.43227,597.43543 219.40625,619.40625 C 211.89324,630.39166 208.12825,635.87865 206.25,638.625 C 205.31087,639.99818 204.85978,640.68796 204.625,641.03125 C 204.50761,641.2029 204.4356,641.30084 204.40625,641.34375 C 204.39158,641.36521 204.37867,641.36964 204.375,641.375 L 206.84375,643.0625 C 206.84375,643.0625 206.85434,643.07906 327.0625,467.3125 L 324.59375,465.625 z" style="fill:#008dd1;fill-opacity:1;fill-rule:evenodd;stroke:none;stroke-width:3;stroke-linecap:butt;stroke-linejoin:miter;stroke-miterlimit:4;stroke-dasharray:none;stroke-opacity:1" id="path13365"/>
      <path d="M 222.55123,617.46705 L 219.42031,600.7878 L 205.61581,642.22976 L 239.23047,614.33614 L 222.55123,617.46705 z" style="fill:#008dd1;fill-rule:evenodd;stroke:#008dd1;stroke-width:2.4pt;marker-start:none" id="path3480"/>
    </g>
    <g id="g3522" transform="matrix(-1,0,0,1,493.73952,-353.34208)">
      <path d="M 325.625,42.03125 L 322.1875,42.0625 C 322.1875,42.0625 323.59375,159.93442 323.59375,467.25 L 327.03125,467.25 C 327.03125,159.92397 325.625,42.03125 325.625,42.03125 z" style="fill:#008dd1;fill-opacity:1;fill-rule:evenodd;stroke:none;stroke-width:3.43442535;stroke-linecap:butt;stroke-linejoin:miter;stroke-miterlimit:4;stroke-dasharray:none;stroke-opacity:1" id="path15499"/>
      <path d="M 324.31355,76.387334 L 338.21372,89.960621 L 323.90495,42.045511 L 310.74027,90.287504 L 324.31355,76.387334 z" style="fill:#008dd1;fill-rule:evenodd;stroke:#008dd1;stroke-width:2.74754028pt;marker-start:none" id="path3528"/>
    </g>
    <g id="g3498" transform="matrix(-1,0,0,1,493.73952,-353.34208)">
      <path d="M 324.4375,463.21875 L 323.90625,466.1875 C 420.8809,483.36008 469.38134,491.9256 493.625,496.21875 C 505.74683,498.36532 511.81329,499.43211 514.84375,499.96875 C 516.35898,500.23707 517.12119,500.37042 517.5,500.4375 C 517.6894,500.47104 517.76515,500.49161 517.8125,500.5 C 517.83618,500.50419 517.86908,500.5302 517.875,500.53125 L 518.40625,497.5625 C 518.40625,497.5625 518.3868,497.56391 324.4375,463.21875 z" style="fill:#eb2d2e;fill-opacity:1;fill-rule:evenodd;stroke:none;stroke-width:3;stroke-linecap:butt;stroke-linejoin:miter;stroke-miterlimit:4;stroke-dasharray:none;stroke-opacity:1" id="path19564"/>
      <path d="M 488.59136,493.80952 L 474.68275,503.53323 L 518.13176,499.04063 L 478.86764,479.90091 L 488.59136,493.80952 z" style="fill:#eb2d2e;fill-rule:evenodd;stroke:#eb2d2e;stroke-width:2.4pt;marker-start:none" id="path3504"/>
    </g>
    <g id="g3514" transform="matrix(-1,0,0,1,493.73952,-353.34208)">
      <path d="M 467.03125,178.28125 C 467.03125,178.28125 467.0354,178.27292 323.59375,465.15625 L 326.28125,466.5 C 398.00207,323.05834 433.85104,251.32917 451.78125,215.46875 C 460.74635,197.53854 465.22747,188.5763 467.46875,184.09375 C 468.58939,181.85247 469.15734,180.74782 469.4375,180.1875 C 469.57758,179.90734 469.65248,179.75754 469.6875,179.6875 C 469.70501,179.65248 469.71437,179.63375 469.71875,179.625 C 469.71875,179.625 467.03125,178.28125 467.03125,178.28125 z" style="fill:#eb2d2e;fill-opacity:1;fill-rule:evenodd;stroke:none;stroke-width:3;stroke-linecap:butt;stroke-linejoin:miter;stroke-miterlimit:4;stroke-dasharray:none;stroke-opacity:1" id="path20571"/>
      <path d="M 454.96533,205.78137 L 460.3319,221.88106 L 468.38174,178.94855 L 438.86564,211.14793 L 454.96533,205.78137 z" style="fill:#eb2d2e;fill-rule:evenodd;stroke:#eb2d2e;stroke-width:2.4pt;marker-start:none" id="path3520"/>
    </g>
    <g id="g3482" transform="matrix(-1,0,0,1,493.73952,-353.34208)">
      <path d="M 49.03125,261.59375 L 47.28125,264 C 47.28125,264 47.280686,264.00074 324.0625,466.03125 L 325.8125,463.625 C 187.42159,362.60975 118.22273,312.09756 83.625,286.84375 C 66.326137,274.21684 57.699716,267.90673 53.375,264.75 C 51.212642,263.17164 50.134339,262.36334 49.59375,261.96875 C 49.323455,261.77145 49.192574,261.67432 49.125,261.625 C 49.091213,261.60034 49.070947,261.59992 49.0625,261.59375 C 49.058277,261.59067 49.032306,261.59452 49.03125,261.59375 z" style="fill:#eb2d2e;fill-opacity:1;fill-rule:evenodd;stroke:none;stroke-width:3;stroke-linecap:butt;stroke-linejoin:miter;stroke-miterlimit:4;stroke-opacity:1" id="path16498"/>
      <path d="M 72.389732,280.4784 L 89.157189,277.8607 L 48.15828,262.79121 L 75.007436,297.24586 L 72.389732,280.4784 z" style="fill:#eb2d2e;fill-rule:evenodd;stroke:#eb2d2e;stroke-width:2.4pt;marker-start:none" id="path3488"/>
    </g>
    <g id="g3538" transform="matrix(-0.9484143,-0.3170336,-0.3170336,0.9484143,639.16616,-184.64846)">
      <path d="M 443.84375,489.28125 C 437.1957,520.94947 418.01596,548.56598 390.65625,565.84375 L 392.25,568.375 C 420.29475,550.66463 439.96674,522.36739 446.78125,489.90625 L 443.84375,489.28125 z" style="fill:#000000;fill-opacity:1;stroke:none;stroke-width:3;stroke-miterlimit:4;stroke-dasharray:none;stroke-dashoffset:0;stroke-opacity:1" id="path22608"/>
      <path d="M 434.98495,503.45349 L 446.10308,485.69224 L 449.1402,506.42508 C 445.60708,502.473 439.88627,501.29053 434.98495,503.45349 z" style="font-size:12px;fill-rule:evenodd;stroke-width:0.625;stroke-linejoin:round" id="path3544"/>
    </g>
    <text x="-170.08966" y="135.18575" transform="scale(1.0868608,0.920081)" style="font-size:48px;font-style:normal;font-variant:normal;font-weight:normal;font-stretch:normal;text-align:start;line-height:100%;writing-mode:lr-tb;text-anchor:start;fill:#008dd1;fill-opacity:1;stroke:#50b1df;stroke-width:1px;stroke-linecap:butt;stroke-linejoin:miter;stroke-opacity:1;font-family:Times New Roman" id="text2498" xml:space="preserve" sodipodi:linespacing="100%"><tspan x="-170.08966" y="135.18575" style="font-size:48px;font-style:normal;font-variant:normal;font-weight:normal;font-stretch:normal;text-align:start;line-height:100%;writing-mode:lr-tb;text-anchor:start;fill:#008dd1;fill-opacity:1;stroke:#50b1df;stroke-width:1;stroke-opacity:1;font-family:Times New Roman" id="tspan2500">x</tspan></text>
    <text x="265.01993" y="363.28958" transform="scale(1.0868608,0.920081)" style="font-size:48px;font-style:normal;font-variant:normal;font-weight:normal;font-stretch:normal;text-align:start;line-height:100%;writing-mode:lr-tb;text-anchor:start;fill:#008dd1;fill-opacity:1;stroke:#50b1df;stroke-width:1px;stroke-linecap:butt;stroke-linejoin:miter;stroke-opacity:1;font-family:Times New Roman" id="text15495" xml:space="preserve" sodipodi:linespacing="100%"><tspan x="265.01993" y="363.28958" style="font-size:48px;font-style:normal;font-variant:normal;font-weight:normal;font-stretch:normal;text-align:start;line-height:100%;writing-mode:lr-tb;text-anchor:start;fill:#008dd1;fill-opacity:1;stroke:#50b1df;stroke-width:1;stroke-opacity:1;font-family:Times New Roman" id="tspan15497">y</tspan></text>
    <text x="431.37347" y="-109.39679" style="font-size:32px;font-style:normal;font-variant:normal;font-weight:normal;font-stretch:normal;text-align:start;line-height:100%;writing-mode:lr-tb;text-anchor:start;fill:#eb2d2e;fill-opacity:1;stroke:none;stroke-width:1px;stroke-linecap:butt;stroke-linejoin:miter;stroke-opacity:1;font-family:Times New Roman" id="text2515" xml:space="preserve" sodipodi:linespacing="100%"><tspan x="431.37347" y="-109.39679" style="font-size:48px;font-style:normal;font-variant:normal;font-weight:bold;font-stretch:normal;text-align:start;line-height:100%;writing-mode:lr-tb;text-anchor:start;fill:#eb2d2e;fill-opacity:1;font-family:Times New Roman" id="tspan2517">Y</tspan></text>
    <text x="68.792854" y="-139.58052" style="font-size:32px;font-style:normal;font-variant:normal;font-weight:normal;font-stretch:normal;text-align:start;line-height:100%;writing-mode:lr-tb;text-anchor:start;fill:#eb2d2e;fill-opacity:1;stroke:none;stroke-width:1px;stroke-linecap:butt;stroke-linejoin:miter;stroke-opacity:1;font-family:Times New Roman" id="text17562" xml:space="preserve" sodipodi:linespacing="100%"><tspan x="68.792854" y="-139.58052" style="font-size:48px;font-style:normal;font-variant:normal;font-weight:bold;font-stretch:normal;text-align:start;line-height:100%;writing-mode:lr-tb;text-anchor:start;fill:#eb2d2e;fill-opacity:1;stroke:none;stroke-opacity:1;font-family:Times New Roman" id="tspan17564">Z</tspan></text>
    <text x="-14.73327" y="106.91978" style="font-size:32px;font-style:normal;font-variant:normal;font-weight:normal;font-stretch:normal;text-align:start;line-height:100%;writing-mode:lr-tb;text-anchor:start;fill:#eb2d2e;fill-opacity:1;stroke:none;stroke-width:1px;stroke-linecap:butt;stroke-linejoin:miter;stroke-opacity:1;font-family:Times New Roman" id="text2521" xml:space="preserve" sodipodi:linespacing="100%"><tspan x="-14.73327" y="106.91978" style="font-size:48px;font-style:normal;font-variant:normal;font-weight:bold;font-stretch:normal;text-align:start;line-height:100%;writing-mode:lr-tb;text-anchor:start;fill:#eb2d2e;fill-opacity:1;font-family:Times New Roman" id="tspan2523">X</tspan></text>
    <text x="380.4874" y="102.7976" transform="scale(1.0868608,0.920081)" style="font-size:48px;font-style:normal;font-variant:normal;font-weight:normal;font-stretch:normal;text-align:start;line-height:100%;writing-mode:lr-tb;text-anchor:start;fill:#ebec0f;fill-opacity:1;stroke:#e8ea0f;stroke-width:1px;stroke-linecap:butt;stroke-linejoin:miter;stroke-opacity:1;font-family:Times New Roman" id="text2448" xml:space="preserve" sodipodi:linespacing="100%"><tspan x="380.4874" y="102.7976" style="font-size:48px;font-style:normal;font-variant:normal;font-weight:normal;font-stretch:normal;text-align:start;line-height:100%;writing-mode:lr-tb;text-anchor:start;fill:#ebec0f;fill-opacity:1;stroke:#e8ea0f;stroke-width:1;stroke-opacity:1;font-family:Times New Roman" id="tspan2450">y'</tspan></text>
    <g id="g3297" transform="matrix(-0.2227182,-0.7900335,0.7319949,-0.7398822,-49.8166,740.97349)" style="fill:#020301;fill-opacity:1;stroke:#050701;stroke-width:0;stroke-miterlimit:0.2;stroke-dasharray:none;stroke-opacity:1">
      <path d="M 281.95235,528.29221 L 279.32526,531.95295 C 304.80094,552.43699 342.36482,551.55607 377.01509,529.63359 L 375.92923,526.05465 C 342.5836,547.15169 306.46881,548.00499 281.95235,528.29221 z" style="fill:#020301;fill-opacity:1;stroke:#050701;stroke-width:0;stroke-miterlimit:0.2;stroke-dasharray:none;stroke-dashoffset:0;stroke-opacity:1" id="path3299"/>
      <path d="M 349.52264,532.46241 L 370.30388,529.77637 L 356.2135,545.28559 C 357.02387,540.04677 354.30549,534.87606 349.52264,532.46241 z" style="font-size:12px;fill:#020301;fill-opacity:1;fill-rule:evenodd;stroke:#050701;stroke-width:0;stroke-linejoin:round;stroke-miterlimit:0.2;stroke-dasharray:none;stroke-opacity:1" id="path3301"/>
    </g>
    <text x="-49.724937" y="369.82553" style="font-size:32px;font-style:normal;font-variant:normal;font-weight:normal;font-stretch:normal;text-align:start;line-height:100%;writing-mode:lr-tb;text-anchor:start;fill:#00aa4f;fill-opacity:1;stroke:none;stroke-width:1px;stroke-linecap:butt;stroke-linejoin:miter;stroke-opacity:1;font-family:Times New Roman" id="text13359" xml:space="preserve" sodipodi:linespacing="100%"><tspan x="-49.724937" y="369.82553" style="font-size:48px;font-style:normal;font-variant:normal;font-weight:bold;font-stretch:normal;text-align:start;line-height:100%;writing-mode:lr-tb;text-anchor:start;fill:#00aa4f;fill-opacity:1;font-family:Times New Roman" id="tspan13361">N</tspan></text>
    <text x="108.90221" y="-325.91357" transform="scale(1.0868608,0.920081)" style="font-size:48px;font-style:normal;font-variant:normal;font-weight:normal;font-stretch:normal;text-align:start;line-height:100%;writing-mode:lr-tb;text-anchor:start;fill:#008dd1;fill-opacity:1;stroke:#50b1df;stroke-width:1px;stroke-linecap:butt;stroke-linejoin:miter;stroke-opacity:1;font-family:Times New Roman" id="text15501" xml:space="preserve" sodipodi:linespacing="100%"><tspan x="108.90221" y="-325.91357" style="font-size:48px;font-style:normal;font-variant:normal;font-weight:normal;font-stretch:normal;text-align:start;line-height:100%;writing-mode:lr-tb;text-anchor:start;fill:#008dd1;fill-opacity:1;stroke:#50b1df;stroke-width:1;stroke-opacity:1;font-family:Times New Roman" id="tspan15503">z</tspan></text>
    <g id="g3826" transform="matrix(-1.4592503,0.6268932,-0.1929974,-0.4522022,-158.42726,120.7119)" style="fill:#edef00;fill-opacity:1;stroke:#eded00;stroke-opacity:1">
      <path d="M 324.59375,465.625 C 264.48967,553.50828 234.43227,597.43543 219.40625,619.40625 C 211.89324,630.39166 208.12825,635.87865 206.25,638.625 C 205.31087,639.99818 204.85978,640.68796 204.625,641.03125 C 204.50761,641.2029 204.4356,641.30084 204.40625,641.34375 C 204.39158,641.36521 204.37867,641.36964 204.375,641.375 L 206.84375,643.0625 C 206.84375,643.0625 206.85434,643.07906 327.0625,467.3125 L 324.59375,465.625 z" style="fill:#edef00;fill-opacity:1;fill-rule:evenodd;stroke:#eded00;stroke-width:3;stroke-linecap:butt;stroke-linejoin:miter;stroke-miterlimit:4;stroke-dasharray:none;stroke-opacity:1" id="path3828"/>
      <path d="M 222.55123,617.46705 L 219.42031,600.7878 L 205.61581,642.22976 L 239.23047,614.33614 L 222.55123,617.46705 z" style="fill:#edef00;fill-opacity:1;fill-rule:evenodd;stroke:#eded00;stroke-width:2.4pt;marker-start:none;stroke-opacity:1" id="path3830"/>
    </g>
    <path d="M -972.09775,-4.7338938 C -1192.6952,-411.4226 -560.18568,34.400766 -479.05073,239.18648" style="fill:none;fill-opacity:1;stroke:#eb2d2e;stroke-width:4.74309254;stroke-miterlimit:4;stroke-dasharray:none;stroke-dashoffset:0;stroke-opacity:1" id="path3832" sodipodi:nodetypes="cc"/>
    <path d="M -405.7459,121.79079 C -405.7459,226.05951 -550.46842,310.58601 -728.99271,310.58601 C -907.517,310.58601 -1052.2395,226.05951 -1052.2395,121.79079 C -1052.2395,17.522066 -907.517,-67.004434 -728.99272,-67.004434 C -550.46842,-67.004434 -405.7459,17.522066 -405.7459,121.79079 L -405.7459,121.79079 z" style="fill:none;fill-opacity:1;stroke:#008dd1;stroke-width:3;stroke-miterlimit:4;stroke-dasharray:none;stroke-dashoffset:0;stroke-opacity:1" id="path3834"/>
    <g id="g3836" transform="translate(-1053.7395,-350.03593)">
      <path d="M 642.0625,465.25 C 642.0625,465.25 553.73976,466.65626 323.5,466.65625 L 323.5,469.65625 C 553.75217,469.65626 642.09375,468.25 642.09375,468.25 L 642.0625,465.25 z" style="fill:#008dd1;fill-opacity:1;fill-rule:evenodd;stroke:none;stroke-width:3;stroke-linecap:butt;stroke-linejoin:miter;stroke-miterlimit:4;stroke-dasharray:none;stroke-opacity:1" id="path3838"/>
      <path d="M 612.07665,467.22142 L 600.27228,479.41392 L 642.07273,466.73627 L 599.88416,455.41706 L 612.07665,467.22142 z" style="fill:#008dd1;fill-rule:evenodd;stroke:#008dd1;stroke-width:2.4pt;marker-start:none" id="path3840"/>
    </g>
    <g id="g3842" transform="matrix(1.1364004,-0.5779504,0.6182384,1.0623461,-1390.686,-191.93538)">
      <path d="M 215.71875,292.90625 L 213.1875,294.53125 C 351.70402,509.56682 420.96462,617.08486 455.59375,670.84375 C 472.90832,697.7232 481.57761,711.18639 485.90625,717.90625 C 488.07057,721.26618 489.14642,722.94127 489.6875,723.78125 C 489.95804,724.20124 490.08861,724.395 490.15625,724.5 C 490.19007,724.5525 490.2103,724.58063 490.21875,724.59375 C 490.22298,724.60031 490.21769,724.62336 490.21875,724.625 L 492.75,723 C 492.75,723 492.7518,722.97739 215.71875,292.90625 z" style="fill:#00aa4f;fill-opacity:1;fill-rule:evenodd;stroke:none;stroke-width:3;stroke-linecap:butt;stroke-linejoin:miter;stroke-miterlimit:4;stroke-dasharray:none;stroke-opacity:1" id="path3844"/>
      <path d="M 475.24243,698.57848 L 458.6559,694.98867 L 491.48834,723.79892 L 478.83225,681.99194 L 475.24243,698.57848 z" style="fill:#00aa4f;fill-rule:evenodd;stroke:#00aa4f;stroke-width:1.96828728pt;marker-start:none" id="path3846"/>
    </g>
    <text x="-448.42023" y="331.96762" style="font-size:32px;font-style:normal;font-variant:normal;font-weight:normal;font-stretch:normal;text-align:start;line-height:100%;writing-mode:lr-tb;text-anchor:start;fill:#00aa4f;fill-opacity:1;stroke:none;stroke-width:1px;stroke-linecap:butt;stroke-linejoin:miter;stroke-opacity:1;font-family:Times New Roman" id="text3848" xml:space="preserve" sodipodi:linespacing="100%"><tspan x="-448.42023" y="331.96762" style="font-size:48px;font-style:normal;font-variant:normal;font-weight:bold;font-stretch:normal;text-align:start;line-height:100%;writing-mode:lr-tb;text-anchor:start;fill:#00aa4f;fill-opacity:1;font-family:Times New Roman" id="tspan3850">N</tspan></text>
    <g id="g3852" transform="translate(-1053.7395,-350.03593)">
      <path d="M 324.59375,465.625 C 264.48967,553.50828 234.43227,597.43543 219.40625,619.40625 C 211.89324,630.39166 208.12825,635.87865 206.25,638.625 C 205.31087,639.99818 204.85978,640.68796 204.625,641.03125 C 204.50761,641.2029 204.4356,641.30084 204.40625,641.34375 C 204.39158,641.36521 204.37867,641.36964 204.375,641.375 L 206.84375,643.0625 C 206.84375,643.0625 206.85434,643.07906 327.0625,467.3125 L 324.59375,465.625 z" style="fill:#008dd1;fill-opacity:1;fill-rule:evenodd;stroke:none;stroke-width:3;stroke-linecap:butt;stroke-linejoin:miter;stroke-miterlimit:4;stroke-dasharray:none;stroke-opacity:1" id="path3854"/>
      <path d="M 222.55123,617.46705 L 219.42031,600.7878 L 205.61581,642.22976 L 239.23047,614.33614 L 222.55123,617.46705 z" style="fill:#008dd1;fill-rule:evenodd;stroke:#008dd1;stroke-width:2.4pt;marker-start:none" id="path3856"/>
    </g>
    <text x="-812.99982" y="366.18271" transform="scale(1.0868608,0.920081)" style="font-size:48px;font-style:normal;font-variant:normal;font-weight:normal;font-stretch:normal;text-align:start;line-height:100%;writing-mode:lr-tb;text-anchor:start;fill:#008dd1;fill-opacity:1;stroke:#50b1df;stroke-width:1px;stroke-linecap:butt;stroke-linejoin:miter;stroke-opacity:1;font-family:Times New Roman" id="text14442" xml:space="preserve" sodipodi:linespacing="100%"><tspan x="-812.99982" y="366.18271" style="font-size:48px;font-style:normal;font-variant:normal;font-weight:normal;font-stretch:normal;text-align:start;line-height:100%;writing-mode:lr-tb;text-anchor:start;fill:#008dd1;fill-opacity:1;stroke:#50b1df;stroke-width:1;stroke-opacity:1;font-family:Times New Roman" id="tspan14444">x</tspan></text>
    <text x="-361.30075" y="131.23311" transform="scale(1.0868608,0.920081)" style="font-size:48px;font-style:normal;font-variant:normal;font-weight:normal;font-stretch:normal;text-align:start;line-height:100%;writing-mode:lr-tb;text-anchor:start;fill:#008dd1;fill-opacity:1;stroke:#50b1df;stroke-width:1px;stroke-linecap:butt;stroke-linejoin:miter;stroke-opacity:1;font-family:Times New Roman" id="text3860" xml:space="preserve" sodipodi:linespacing="100%"><tspan x="-361.30075" y="131.23311" style="font-size:48px;font-style:normal;font-variant:normal;font-weight:normal;font-stretch:normal;text-align:start;line-height:100%;writing-mode:lr-tb;text-anchor:start;fill:#008dd1;fill-opacity:1;stroke:#50b1df;stroke-width:1;stroke-opacity:1;font-family:Times New Roman" id="tspan3862">y</tspan></text>
    <text x="-716.81268" y="-334.56219" transform="scale(1.0868608,0.920081)" style="font-size:48px;font-style:normal;font-variant:normal;font-weight:normal;font-stretch:normal;text-align:start;line-height:100%;writing-mode:lr-tb;text-anchor:start;fill:#008dd1;fill-opacity:1;stroke:#50b1df;stroke-width:1px;stroke-linecap:butt;stroke-linejoin:miter;stroke-opacity:1;font-family:Times New Roman" id="text3864" xml:space="preserve" sodipodi:linespacing="100%"><tspan x="-716.81268" y="-334.56219" style="font-size:48px;font-style:normal;font-variant:normal;font-weight:normal;font-stretch:normal;text-align:start;line-height:100%;writing-mode:lr-tb;text-anchor:start;fill:#008dd1;fill-opacity:1;stroke:#50b1df;stroke-width:1;stroke-opacity:1;font-family:Times New Roman" id="tspan3866">z</tspan></text>
    <g id="g3868" transform="translate(-1053.7395,-350.03593)">
      <path d="M 325.625,42.03125 L 322.1875,42.0625 C 322.1875,42.0625 323.59375,159.93442 323.59375,467.25 L 327.03125,467.25 C 327.03125,159.92397 325.625,42.03125 325.625,42.03125 z" style="fill:#008dd1;fill-opacity:1;fill-rule:evenodd;stroke:none;stroke-width:3.43442535;stroke-linecap:butt;stroke-linejoin:miter;stroke-miterlimit:4;stroke-dasharray:none;stroke-opacity:1" id="path3870"/>
      <path d="M 324.31355,76.387334 L 338.21372,89.960621 L 323.90495,42.045511 L 310.74027,90.287504 L 324.31355,76.387334 z" style="fill:#008dd1;fill-rule:evenodd;stroke:#008dd1;stroke-width:2.74754028pt;marker-start:none" id="path3872"/>
    </g>
    <text x="-999.7218" y="-106.72066" style="font-size:32px;font-style:normal;font-variant:normal;font-weight:normal;font-stretch:normal;text-align:start;line-height:100%;writing-mode:lr-tb;text-anchor:start;fill:#eb2d2e;fill-opacity:1;stroke:none;stroke-width:1px;stroke-linecap:butt;stroke-linejoin:miter;stroke-opacity:1;font-family:Times New Roman" id="text3874" xml:space="preserve" sodipodi:linespacing="100%"><tspan x="-999.7218" y="-106.72066" style="font-size:48px;font-style:normal;font-variant:normal;font-weight:bold;font-stretch:normal;text-align:start;line-height:100%;writing-mode:lr-tb;text-anchor:start;fill:#eb2d2e;fill-opacity:1;stroke:none;stroke-opacity:1;font-family:Times New Roman" id="tspan3876">Z</tspan></text>
    <g id="g3878" transform="translate(-1053.7395,-350.03593)">
      <path d="M 324.4375,463.21875 L 323.90625,466.1875 C 420.8809,483.36008 469.38134,491.9256 493.625,496.21875 C 505.74683,498.36532 511.81329,499.43211 514.84375,499.96875 C 516.35898,500.23707 517.12119,500.37042 517.5,500.4375 C 517.6894,500.47104 517.76515,500.49161 517.8125,500.5 C 517.83618,500.50419 517.86908,500.5302 517.875,500.53125 L 518.40625,497.5625 C 518.40625,497.5625 518.3868,497.56391 324.4375,463.21875 z" style="fill:#eb2d2e;fill-opacity:1;fill-rule:evenodd;stroke:none;stroke-width:3;stroke-linecap:butt;stroke-linejoin:miter;stroke-miterlimit:4;stroke-dasharray:none;stroke-opacity:1" id="path3880"/>
      <path d="M 488.59136,493.80952 L 474.68275,503.53323 L 518.13176,499.04063 L 478.86764,479.90091 L 488.59136,493.80952 z" style="fill:#eb2d2e;fill-rule:evenodd;stroke:#eb2d2e;stroke-width:2.4pt;marker-start:none" id="path3882"/>
    </g>
    <text x="-511.33362" y="181.0721" style="font-size:32px;font-style:normal;font-variant:normal;font-weight:normal;font-stretch:normal;text-align:start;line-height:100%;writing-mode:lr-tb;text-anchor:start;fill:#eb2d2e;fill-opacity:1;stroke:none;stroke-width:1px;stroke-linecap:butt;stroke-linejoin:miter;stroke-opacity:1;font-family:Times New Roman" id="text20565" xml:space="preserve" sodipodi:linespacing="100%"><tspan x="-511.33362" y="181.0721" style="font-size:48px;font-style:normal;font-variant:normal;font-weight:bold;font-stretch:normal;text-align:start;line-height:100%;writing-mode:lr-tb;text-anchor:start;fill:#eb2d2e;fill-opacity:1;font-family:Times New Roman" id="tspan20567">X</tspan></text>
    <g id="g3886" transform="translate(-1053.7395,-350.03593)">
      <path d="M 467.03125,178.28125 C 467.03125,178.28125 467.0354,178.27292 323.59375,465.15625 L 326.28125,466.5 C 398.00207,323.05834 433.85104,251.32917 451.78125,215.46875 C 460.74635,197.53854 465.22747,188.5763 467.46875,184.09375 C 468.58939,181.85247 469.15734,180.74782 469.4375,180.1875 C 469.57758,179.90734 469.65248,179.75754 469.6875,179.6875 C 469.70501,179.65248 469.71437,179.63375 469.71875,179.625 C 469.71875,179.625 467.03125,178.28125 467.03125,178.28125 z" style="fill:#eb2d2e;fill-opacity:1;fill-rule:evenodd;stroke:none;stroke-width:3;stroke-linecap:butt;stroke-linejoin:miter;stroke-miterlimit:4;stroke-dasharray:none;stroke-opacity:1" id="path3888"/>
      <path d="M 454.96533,205.78137 L 460.3319,221.88106 L 468.38174,178.94855 L 438.86564,211.14793 L 454.96533,205.78137 z" style="fill:#eb2d2e;fill-rule:evenodd;stroke:#eb2d2e;stroke-width:2.4pt;marker-start:none" id="path3890"/>
    </g>
    <g id="g3892" transform="translate(-1053.7395,-350.03593)">
      <path d="M 49.03125,261.59375 L 47.28125,264 C 47.28125,264 47.280686,264.00074 324.0625,466.03125 L 325.8125,463.625 C 187.42159,362.60975 118.22273,312.09756 83.625,286.84375 C 66.326137,274.21684 57.699716,267.90673 53.375,264.75 C 51.212642,263.17164 50.134339,262.36334 49.59375,261.96875 C 49.323455,261.77145 49.192574,261.67432 49.125,261.625 C 49.091213,261.60034 49.070947,261.59992 49.0625,261.59375 C 49.058277,261.59067 49.032306,261.59452 49.03125,261.59375 z" style="fill:#eb2d2e;fill-opacity:1;fill-rule:evenodd;stroke:none;stroke-width:3;stroke-linecap:butt;stroke-linejoin:miter;stroke-miterlimit:4;stroke-opacity:1" id="path3894"/>
      <path d="M 72.389732,280.4784 L 89.157189,277.8607 L 48.15828,262.79121 L 75.007436,297.24586 L 72.389732,280.4784 z" style="fill:#eb2d2e;fill-rule:evenodd;stroke:#eb2d2e;stroke-width:2.4pt;marker-start:none" id="path3896"/>
    </g>
    <text x="-614.93518" y="-191.27034" style="font-size:32px;font-style:normal;font-variant:normal;font-weight:normal;font-stretch:normal;text-align:start;line-height:100%;writing-mode:lr-tb;text-anchor:start;fill:#eb2d2e;fill-opacity:1;stroke:none;stroke-width:1px;stroke-linecap:butt;stroke-linejoin:miter;stroke-opacity:1;font-family:Times New Roman" id="text20573" xml:space="preserve" sodipodi:linespacing="100%"><tspan x="-614.93518" y="-191.27034" style="font-size:48px;font-style:normal;font-variant:normal;font-weight:bold;font-stretch:normal;text-align:start;line-height:100%;writing-mode:lr-tb;text-anchor:start;fill:#eb2d2e;fill-opacity:1;font-family:Times New Roman" id="tspan20575">Y</tspan></text>
    <g id="g3530" transform="matrix(0.8433439,-3.3764761e-2,6.2705773e-2,0.9143017,-1021.7878,-315.76285)">
      <path d="M 281.95235,528.29221 L 279.32526,531.95295 C 304.80094,552.43699 342.36482,551.55607 377.01509,529.63359 L 375.92923,526.05465 C 342.5836,547.15169 306.46881,548.00499 281.95235,528.29221 z" style="fill:#000000;fill-opacity:1;stroke:none;stroke-width:3;stroke-miterlimit:4;stroke-dasharray:none;stroke-dashoffset:0;stroke-opacity:1" id="path20590"/>
      <path d="M 349.52264,532.46241 L 370.30388,529.77637 L 356.2135,545.28559 C 357.02387,540.04677 354.30549,534.87606 349.52264,532.46241 z" style="font-size:12px;fill-rule:evenodd;stroke-width:0.625;stroke-linejoin:round" id="path3536"/>
    </g>
    <g id="g3907" transform="matrix(0.9058105,-0.2855337,0.423683,0.6104549,-1859.6044,-47.375594)">
      <path d="M 1144.5066,476.85772 C 1146.5661,506.22642 1134.3682,538.05839 1110.6745,565.11372 L 1113.0614,566.4733 C 1137.3483,538.74055 1149.8672,506.11489 1147.7562,476.01084 L 1144.5066,476.85772 z" style="fill:#000000;fill-opacity:1;stroke:none;stroke-width:3;stroke-miterlimit:4;stroke-dasharray:none;stroke-dashoffset:0;stroke-opacity:1" id="path3909"/>
      <path d="M 1136.9483,482.93007 L 1148.0664,465.16882 L 1151.1036,485.90166 C 1147.5704,481.94958 1141.8496,480.76711 1136.9483,482.93007 z" style="font-size:12px;fill-rule:evenodd;stroke-width:0.625;stroke-linejoin:round" id="path3911"/>
    </g>
    <g id="g2442" transform="matrix(0.740232,-0.2798275,0.4491518,0.7765137,-2231.4897,-221.48739)">
      <path d="M 1611.5542,1079.0303 C 1618.3361,1100.369 1612.3787,1121.5895 1595.0254,1137.8636 L 1597.4527,1139.1544 C 1615.2405,1122.4729 1621.3619,1100.7255 1614.4103,1078.8525 L 1611.5542,1079.0303 z" style="fill:#000000;fill-opacity:1;stroke:none;stroke-width:3;stroke-miterlimit:4;stroke-dasharray:none;stroke-dashoffset:0;stroke-opacity:1" id="path2444"/>
      <path d="M 1601.8315,1082.1965 L 1612.9496,1064.4353 L 1615.9868,1085.1681 C 1612.4536,1081.216 1606.7328,1080.0335 1601.8315,1082.1965 z" style="font-size:12px;fill-rule:evenodd;stroke-width:0.625;stroke-linejoin:round" id="path2446"/>
    </g>
    <text x="-514.03955" y="-61.411018" transform="scale(1.0868608,0.920081)" style="font-size:48px;font-style:normal;font-variant:normal;font-weight:normal;font-stretch:normal;text-align:start;line-height:100%;writing-mode:lr-tb;text-anchor:start;fill:#f1f40c;fill-opacity:1;stroke:#f3f30a;stroke-width:1px;stroke-linecap:butt;stroke-linejoin:miter;stroke-opacity:1;font-family:Times New Roman" id="text3924" xml:space="preserve" sodipodi:linespacing="100%"><tspan x="-514.03955" y="-61.411018" style="font-size:48px;font-style:normal;font-variant:normal;font-weight:normal;font-stretch:normal;text-align:start;line-height:100%;writing-mode:lr-tb;text-anchor:start;fill:#f1f40c;fill-opacity:1;stroke:#f3f30a;stroke-width:1;stroke-opacity:1;font-family:Times New Roman" id="tspan3926">y'</tspan></text>
    <g id="g2494" transform="matrix(0.6081459,-0.5884536,1.0074399,0.408238,-477.82718,147.69955)">
      <path d="M 281.95235,528.29221 L 279.32526,531.95295 C 304.80094,552.43699 342.36482,551.55607 377.01509,529.63359 L 375.92923,526.05465 C 342.5836,547.15169 306.46881,548.00499 281.95235,528.29221 z" style="fill:#000000;fill-opacity:1;stroke:none;stroke-width:3;stroke-miterlimit:4;stroke-dasharray:none;stroke-dashoffset:0;stroke-opacity:1" id="path2496"/>
      <path d="M 349.52264,532.46241 L 370.30388,529.77637 L 356.2135,545.28559 C 357.02387,540.04677 354.30549,534.87606 349.52264,532.46241 z" style="font-size:12px;fill-rule:evenodd;stroke-width:0.625;stroke-linejoin:round" id="path2498"/>
    </g>
    <text x="289.03839" y="91.126472" style="font-size:48px;font-style:normal;font-variant:normal;font-weight:normal;font-stretch:normal;text-align:start;line-height:125%;writing-mode:lr-tb;text-anchor:start;fill:#000000;fill-opacity:1;stroke:none;stroke-width:1px;stroke-linecap:butt;stroke-linejoin:miter;stroke-opacity:1;font-family:Times New Roman" id="text22604" xml:space="preserve" sodipodi:linespacing="125%"><tspan x="289.03839" y="91.126472" id="tspan22606">θ</tspan></text>
    <text x="-725.8941" y="232.00813" style="font-size:48px;font-style:normal;font-variant:normal;font-weight:normal;font-stretch:normal;text-align:start;line-height:125%;writing-mode:lr-tb;text-anchor:start;fill:#000000;fill-opacity:1;stroke:none;stroke-width:1px;stroke-linecap:butt;stroke-linejoin:miter;stroke-opacity:1;font-family:Times New Roman" id="text2651" xml:space="preserve" sodipodi:linespacing="125%"><tspan x="-725.8941" y="232.00813" id="tspan2653">ψ</tspan></text>
    <text x="32.420681" y="203.58908" style="font-size:48px;font-style:normal;font-variant:normal;font-weight:normal;font-stretch:normal;text-align:start;line-height:125%;writing-mode:lr-tb;text-anchor:start;fill:#000000;fill-opacity:1;stroke:none;stroke-width:1px;stroke-linecap:butt;stroke-linejoin:miter;stroke-opacity:1;font-family:Times New Roman" id="text2655" xml:space="preserve" sodipodi:linespacing="125%"><tspan x="32.420681" y="203.58908" id="tspan2657">φ</tspan></text>
    <text x="-602.3902" y="-57.444981" style="font-size:48px;font-style:normal;font-variant:normal;font-weight:normal;font-stretch:normal;text-align:start;line-height:125%;writing-mode:lr-tb;text-anchor:start;fill:#000000;fill-opacity:1;stroke:none;stroke-width:1px;stroke-linecap:butt;stroke-linejoin:miter;stroke-opacity:1;font-family:Times New Roman" id="text2659" xml:space="preserve" sodipodi:linespacing="125%"><tspan x="-602.3902" y="-57.444981" id="tspan2661">θ</tspan></text>
    <text x="-584.72217" y="192.16049" style="font-size:48px;font-style:normal;font-variant:normal;font-weight:normal;font-stretch:normal;text-align:start;line-height:125%;writing-mode:lr-tb;text-anchor:start;fill:#000000;fill-opacity:1;stroke:none;stroke-width:1px;stroke-linecap:butt;stroke-linejoin:miter;stroke-opacity:1;font-family:Times New Roman" id="text2663" xml:space="preserve" sodipodi:linespacing="125%"><tspan x="-584.72217" y="192.16049" id="tspan2665">φ</tspan></text>
    <text x="282.67734" y="206.29385" style="font-size:48px;font-style:normal;font-variant:normal;font-weight:normal;font-stretch:normal;text-align:start;line-height:125%;writing-mode:lr-tb;text-anchor:start;fill:#000000;fill-opacity:1;stroke:none;stroke-width:1px;stroke-linecap:butt;stroke-linejoin:miter;stroke-opacity:1;font-family:Times New Roman" id="text2667" xml:space="preserve" sodipodi:linespacing="125%"><tspan x="282.67734" y="206.29385" id="tspan2669">ψ</tspan></text>
    <g id="g2671" transform="matrix(-3.0757499,-0.2493659,-0.4067923,0.1798771,1364.762,109.93278)" style="fill:#edef00;fill-opacity:1;stroke:#eded00;stroke-width:1.09211326;stroke-opacity:1">
      <path d="M 324.59375,465.625 C 264.48967,553.50828 234.43227,597.43543 219.40625,619.40625 C 211.89324,630.39166 208.12825,635.87865 206.25,638.625 C 205.31087,639.99818 204.85978,640.68796 204.625,641.03125 C 204.50761,641.2029 204.4356,641.30084 204.40625,641.34375 C 204.39158,641.36521 204.37867,641.36964 204.375,641.375 L 206.84375,643.0625 C 206.84375,643.0625 206.85434,643.07906 327.0625,467.3125 L 324.59375,465.625 z" style="fill:#edef00;fill-opacity:1;fill-rule:evenodd;stroke:#eded00;stroke-width:3.27633977;stroke-linecap:butt;stroke-linejoin:miter;stroke-miterlimit:4;stroke-dasharray:none;stroke-opacity:1" id="path2673"/>
      <path d="M 222.55123,617.46705 L 219.42031,600.7878 L 205.61581,642.22976 L 239.23047,614.33614 L 222.55123,617.46705 z" style="fill:#edef00;fill-opacity:1;fill-rule:evenodd;stroke:#eded00;stroke-width:2.62107182pt;marker-start:none;stroke-opacity:1" id="path2675"/>
    </g>
  </g>
</svg>