<?xml version="1.0" encoding="UTF-8"?>
<!-- Generator: Adobe Illustrator 12.0.0, SVG Export Plug-In  -->
<!DOCTYPE svg PUBLIC "-//W3C//DTD SVG 1.1//EN" "http://www.w3.org/Graphics/SVG/1.1/DTD/svg11.dtd" [
	<!ENTITY ns_flows "http://ns.adobe.com/Flows/1.0/">
	<!ENTITY ns_svg "http://www.w3.org/2000/svg">
	<!ENTITY ns_xlink "http://www.w3.org/1999/xlink">
]>
<svg version="1.1" xmlns="http://www.w3.org/2000/svg" xmlns:xlink="http://www.w3.org/1999/xlink" xmlns:a="http://ns.adobe.com/AdobeSVGViewerExtensions/3.0/" width="1157" height="1092" viewBox="-0.319 -0.223 1157 1092" enable-background="new -0.319 -0.223 1157 1092" xml:space="preserve">
<defs>
</defs>
<g>
	<g>
		<path fill="#626365" d="M844.131,907.996c54.385,0,76.689,18.477,76.689,67.275v116.426h-48.447V981.199    c0-25.444-4.541-32.769-32.08-32.769h-65.928v143.267h-48.447V907.996H844.131z"/>
		<path fill="#626365" d="M1082.49,1053.347c17.432,0,26.147-4.883,26.147-17.764c0-12.92-8.716-18.135-26.147-18.135h-60    c-44.629,0-63.447-9.053-63.447-51.943c0-39.39,20.566-57.51,64.834-57.51h122.402v38.335h-103.926    c-21.953,0-33.467,1.401-33.467,16.748c0,11.484,7.324,16.367,23.008,16.367h62.09c40.439,0,61.699,19.526,61.699,54.736    c0,34.512-21.26,57.515-50.186,57.515h-143.32v-38.35H1082.49z"/>
		<path fill="#626365" d="M375.117,1053.347c17.417,0,26.147-4.883,26.147-17.764c0-12.92-8.73-18.135-26.147-18.135h-60    c-44.619,0-63.447-9.053-63.447-51.943c0-39.39,20.576-57.51,64.839-57.51h122.397v38.335H334.98    c-21.953,0-33.472,1.401-33.472,16.748c0,11.484,7.339,16.367,23.022,16.367h62.09c40.439,0,61.699,19.526,61.699,54.736    c0,34.512-21.26,57.515-50.195,57.515H280.713l-33.999-38.35H375.117z"/>
		<polygon fill="#626365" points="118.896,1038.093 167.813,1091.697 236.519,1091.697 154.063,1001.335 237.788,908.542     169.092,908.542 118.896,964.167 68.701,908.542 0,908.542 83.73,1001.335 1.289,1091.697 69.99,1091.697   "/>
		<path fill="#626365" d="M568.428,907.996c-61.006,0-92.378,32.07-92.378,92.021c0,60.298,31.372,91.68,92.378,91.68h115.381    v-38.35H574.707c-31.382,0-43.926-3.828-44.971-34.165h154.072V907.996H568.428z M575.059,946.331h60.293v34.521H529.736    C530.781,951.56,544.033,946.331,575.059,946.331"/>
	</g>
</g>
<path fill="#F5A641" d="M280.854,173.403c-14.902,0-29.648,3.079-39.238,12.734c-55.117,55.486,79.155,218.926,79.155,218.926  l127.104-3.53c22.842-22.324,43.857-42.844,63.838-61.951l-130.366-8.994c0,0-79.849-92.629-98.101-157.161  C282.446,173.413,281.65,173.403,280.854,173.403"/>
<path fill="#F18F09" d="M447.881,401.533l-127.104,3.53c-59.487,77.266-79.604,140.806-79.604,140.806  c-24.375,78.25,22.114,86.794,43.589,86.794c5.186,0,8.911-0.498,9.829-0.635c17.886-65.112,88.193-155.867,88.193-155.867  l126.167-15.369c-37.896-34.5-61.274-59.06-61.274-59.06C447.744,401.663,447.808,401.599,447.881,401.533"/>
<path fill="#FABC1B" d="M241.162,545.854c0,0,20.112-63.525,79.6-140.811c0,0.01-112.725-137.209-89.18-202.859  c-47.959,81.414-51.724,162.38-51.724,162.38c-12.036,136.165,49.712,231.604,61.938,249.006  C233.403,600.881,230.518,580.012,241.162,545.854"/>
<path fill="#F18E00" d="M290.464,123.081c-3.501,2.705-4.741,5.1-4.741,5.1S287.329,126.326,290.464,123.081"/>
<path fill="#F18F09" d="M772.129,64.38c-23.442,0-58.047,8.569-108.271,37.161c-60.386,34.395-106.934,66.455-151.997,104.155  c19.478,13.84,38.555,28.474,60.015,44.653c5.835,4.412,12.695,9.912,20.122,16.052c44.141-37.632,88.75-70.457,144.355-103.711  c38.394-22.961,66.465-33.765,86.792-38.049c1.592-15.146,0.029-29.06-5.791-40.925c0,0-7.979-15.31-34.531-18.687  c-0.044-0.005-0.088-0.01-0.132-0.02c-0.381-0.044-0.762-0.09-1.152-0.129c-0.098-0.01-0.195-0.024-0.288-0.034  c-0.337-0.037-0.674-0.071-1.016-0.1c-0.493-0.051-0.991-0.085-1.504-0.127c-0.02,0-0.034-0.005-0.059-0.005  c-0.371-0.029-0.747-0.054-1.123-0.073l-0.19-0.015C775.684,64.436,773.936,64.38,772.129,64.38"/>
<path fill="#EA620D" d="M511.865,205.693c-15.742,13.169-31.304,27.024-47.212,41.909c25.264,15.75,53.247,34.937,83.062,58.149  c14.961-13.774,29.604-26.829,44.282-39.348c-7.427-6.145-14.287-11.646-20.122-16.05  C550.415,234.167,531.338,219.539,511.865,205.693"/>
<path fill="#E74C13" d="M464.653,247.603c-26.069,24.399-53.062,51.565-83.306,82.986l130.366,8.994  c12.339-11.785,24.268-23.025,35.996-33.831C517.896,282.537,489.922,263.352,464.653,247.603"/>
<path fill="#FABC1B" d="M576.519,0C418.755,0,313.472,99.26,290.464,123.081c4.575-3.53,13.008-7.595,27.593-7.595  c15.19-0.005,37.056,4.409,68.188,18.45c54.019,24.324,90.459,46.76,125.615,71.76c45.063-37.7,91.611-69.761,151.997-104.155  c50.19-28.591,84.78-37.166,108.223-37.166c1.831,0,3.584,0.056,5.278,0.149l0.19,0.017c0.376,0.024,0.752,0.044,1.123,0.073  c0.02,0,0.034,0.005,0.059,0.005c0.508,0.042,1.011,0.076,1.504,0.127c0.342,0.029,0.679,0.063,1.016,0.1  c0.093,0.01,0.19,0.024,0.288,0.034c0.386,0.039,0.771,0.085,1.152,0.129c0.044,0.01,0.088,0.015,0.132,0.02  c9.141,1.15,16.084,3.716,21.255,6.582c0,0-32.397-23.582-64.214-36.76C680.869,9.814,626.084,0,576.519,0"/>
<path fill="#EC7007" d="M318.057,115.483c-14.585,0-23.022,4.065-27.598,7.6c-3.135,3.245-4.736,5.095-4.736,5.095  c-4.326,6.06-6.201,13.621-6.162,22.224c0.039,7.061,1.362,14.812,3.687,23.025c25.503,0.547,50.718,9.561,50.718,9.561  s52.28,15.74,130.684,64.614c15.913-14.883,31.475-28.738,47.217-41.909c-35.166-25-71.606-47.429-125.615-71.76  C355.112,119.897,333.247,115.479,318.057,115.483"/>
<path fill="#E85911" d="M283.247,173.428c18.247,64.529,98.101,157.161,98.101,157.161c30.244-31.426,57.231-58.586,83.301-82.986  c-78.403-48.87-130.684-64.614-130.684-64.614S308.75,173.972,283.247,173.428"/>
<path fill="#EF8109" d="M782.69,65.01c0.044,0.01,0.088,0.015,0.132,0.02C782.778,65.024,782.734,65.02,782.69,65.01 M781.25,64.846  c0.093,0.01,0.19,0.024,0.288,0.034C781.44,64.871,781.343,64.856,781.25,64.846 M778.73,64.619  c0.513,0.042,1.011,0.076,1.504,0.127C779.741,64.695,779.238,64.661,778.73,64.619 M777.549,64.541  c0.376,0.02,0.752,0.044,1.123,0.073C778.301,64.585,777.925,64.565,777.549,64.541 M772.08,64.375  c-23.442,0-58.032,8.574-108.228,37.166c50.229-28.591,84.834-37.161,108.276-37.161c1.807,0,3.555,0.056,5.229,0.144  C775.664,64.431,773.911,64.375,772.08,64.375"/>
<path fill="#F18E00" d="M290.493,658.86c0.054,9.668,2.295,18.008,7.378,24.39c0,0,1.357,2.31,4.976,4.814  c-3.291-3.066-4.976-4.814-4.976-4.814C292.788,676.868,290.547,668.528,290.493,658.86"/>
<path fill="#F5A641" d="M593.193,532.227c-5.835,5.31-11.24,10.085-15.962,14.05c-20.576,17.29-38.853,32.91-57.583,47.759  c46.978,35.288,95.142,64.868,157.261,96.055c47.861,24.033,81.426,31.602,104.717,31.602c1.631,0,3.208-0.039,4.736-0.112h0.063  c0.498-0.024,0.986-0.049,1.475-0.083h0.059c0.488-0.034,0.967-0.068,1.445-0.103c0.015-0.005,0.029-0.005,0.049-0.005  c13.276-1.055,22.607-4.731,29.023-8.755c0,0-0.02,0.015-0.054,0.044c9.604-5.996,12.7-12.778,12.7-12.778  c4.15-9.722,5.518-20.62,4.678-32.285c-13.608-2.227-24.761-6.401-25.679-6.753c-0.039-0.015-0.059-0.024-0.059-0.024  C734.995,634.417,657.3,582.615,593.193,532.227"/>
<path fill="#EB6E08" d="M544.971,492.607c-23.701,19.756-50.083,40.366-77.656,59.514c17.71,15,34.946,28.853,52.334,41.914  c18.73-14.849,37.012-30.469,57.583-47.764c4.722-3.965,10.132-8.74,15.967-14.045C576.04,518.748,559.863,505.374,544.971,492.607"/>
<path fill="#E74C13" d="M508.95,460.791l-126.162,15.371c30.674,28.699,58.14,53.613,84.526,75.959  c27.573-19.146,53.955-39.761,77.656-59.517C531.909,481.416,519.829,470.686,508.95,460.791"/>
<path fill="#FABC1B" d="M519.648,594.036c-33.789,26.802-69.019,51.104-121.65,78.228c-33.032,17.002-55.703,22.07-71.001,22.07  c-12.3,0-19.834-3.276-24.15-6.27C326.001,709.666,428.271,796.58,575.4,796.58c54.683,0,115.586-12.017,180.889-43.848  c30.298-14.492,60.679-38.877,62.134-40.049c-6.411,3.999-15.737,7.656-28.97,8.706c-0.015,0-0.034,0-0.049,0.005  c-0.479,0.039-0.962,0.068-1.445,0.103H787.9c-0.488,0.034-0.981,0.059-1.475,0.083h-0.063c-1.528,0.073-3.101,0.112-4.727,0.112  c-23.296,0-56.865-7.563-104.727-31.602C614.79,658.904,566.626,629.324,519.648,594.036"/>
<path fill="#EC7007" d="M467.314,552.122c-56.665,39.365-118.418,72.617-172.5,79.873c0,0-0.083,0.015-0.225,0.034  c-2.646,9.634-4.141,18.701-4.097,26.831c0.049,9.668,2.295,18.008,7.373,24.39c0,0,1.694,1.748,4.976,4.814  c4.321,2.993,11.855,6.27,24.155,6.27c15.303,0,37.969-5.068,71.001-22.065c52.637-27.124,87.861-51.431,121.65-78.232  C502.256,580.979,485.024,567.122,467.314,552.122"/>
<path fill="#E53E16" d="M382.788,476.162L382.788,476.162c0,0-70.317,90.754-88.203,155.867c0.151-0.02,0.225-0.034,0.225-0.034  c54.092-7.256,115.835-40.508,172.5-79.873C440.928,529.778,413.467,504.863,382.788,476.162"/>
<path fill="#F2920A" d="M787.9,721.497c-0.488,0.034-0.977,0.059-1.475,0.083C786.919,721.555,787.412,721.531,787.9,721.497   M789.404,721.394c-0.479,0.039-0.957,0.068-1.445,0.103C788.442,721.462,788.926,721.433,789.404,721.394 M818.477,712.634  c-6.416,4.023-15.747,7.7-29.023,8.755c13.232-1.05,22.559-4.707,28.97-8.706C818.457,712.649,818.477,712.634,818.477,712.634   M519.648,594.036L519.648,594.036c46.978,35.288,95.142,64.868,157.261,96.055c47.861,24.038,81.431,31.602,104.727,31.602  c1.626,0,3.198-0.039,4.727-0.112c-1.528,0.073-3.105,0.112-4.736,0.112c-23.291,0-56.855-7.568-104.717-31.602  C614.79,658.904,566.626,629.324,519.648,594.036"/>
<path fill="#FABC1B" d="M843.809,122.271c-5.776,0-12.612,0.674-20.664,2.371C831.196,122.944,838.032,122.271,843.809,122.271  c22.266,0,28.848,10,28.848,10c40.908,68.535-139.814,261.406-139.814,261.406l-83.12,2.349l83.12-2.349  c0,0,55.532,62.368,65.342,74.385c76.406,93.464,87.163,144.851,87.163,144.851c11.47,45.459-10.684,56.069-33.867,56.069  c-5.303,0-10.659-0.552-15.679-1.372v0.005c5.024,0.82,10.381,1.377,15.688,1.377c11.88,0,23.481-2.783,30.439-11.616l0.269-0.317  c219.6-285.742-9.541-524.788-9.541-524.788S866.074,122.271,843.809,122.271"/>
<path fill="#EC7007" d="M732.842,393.677l-83.12,2.349c-1.567,1.646-23.135,24.045-56.533,54.502l95.776-11.67  c0,0,140.293,137.888,146.836,228.752c5.02,0.82,10.376,1.372,15.679,1.372c23.184,0,45.337-10.615,33.867-56.069  c0,0-10.757-51.387-87.163-144.851C788.374,456.047,732.842,393.677,732.842,393.677"/>
<path fill="#E74E13" d="M649.722,396.025l-202.046,5.71c0,0,23.379,24.561,61.274,59.055l84.238-10.266  C626.587,420.076,648.154,397.671,649.722,396.025"/>
<path fill="#F29400" d="M843.809,122.271c-5.776,0-12.612,0.674-20.664,2.371c-9.609,91.284-134.087,227.185-134.087,227.185  l-93.369-6.445c17.656,15.454,35.757,32.271,54.131,50.544l-0.098,0.1l83.12-2.349c0,0,180.723-192.871,139.814-261.406  C872.656,132.271,866.074,122.271,843.809,122.271"/>
<path fill="#EC7405" d="M511.714,339.585c-19.98,19.099-40.996,39.624-63.838,61.951l201.943-5.605  c-18.374-18.279-36.475-35.095-54.131-50.549L511.714,339.585"/>
<path fill="#EA670B" d="M649.819,395.928l-201.943,5.605c-0.063,0.063-0.132,0.129-0.205,0.2l202.051-5.706L649.819,395.928"/>
<path fill="#E74C13" d="M823.145,124.639c-20.327,4.285-48.398,15.095-86.792,38.049c-55.605,33.262-100.215,66.082-144.355,103.716  c40.21,33.259,97.061,85.425,97.061,85.425S813.535,215.928,823.145,124.639"/>
<path fill="#E64115" d="M591.997,266.401c-14.683,12.52-29.321,25.576-44.282,39.351c15.532,12.09,31.567,25.273,47.974,39.629  l93.369,6.445C689.058,351.826,632.212,299.661,591.997,266.401"/>
<path fill="#E43117" d="M547.715,305.752c-11.738,10.806-23.662,22.046-36.001,33.835l83.975,5.793  C579.282,331.028,563.242,317.842,547.715,305.752"/>
<path fill="#F2920A" d="M810.122,660.862c0.918,0.352,12.07,4.526,25.679,6.753v-0.005  C822.192,665.383,811.04,661.213,810.122,660.862"/>
<path fill="#E85911" d="M688.965,438.857l-95.776,11.67L688.965,438.857c0,0-57.207,58.296-95.771,93.369  c64.106,50.388,141.802,102.19,216.87,128.611c0,0,0.02,0.01,0.059,0.024c0.918,0.352,12.075,4.521,25.679,6.748  C829.258,576.746,688.965,438.857,688.965,438.857"/>
<path fill="#E53517" d="M688.965,438.857l-95.776,11.67c-14.155,12.905-30.435,27.256-48.218,42.08  c14.893,12.766,31.069,26.14,48.223,39.619C631.758,497.153,688.965,438.857,688.965,438.857"/>
<path fill="#E42518" d="M593.188,450.527l-84.243,10.264c10.884,9.895,22.964,20.625,36.021,31.816  C562.754,477.783,579.033,463.433,593.188,450.527"/>
</svg>